<?xml version="1.0" standalone="no"?>
<!DOCTYPE svg PUBLIC "-//W3C//DTD SVG 20010904//EN"
 "http://www.w3.org/TR/2001/REC-SVG-20010904/DTD/svg10.dtd">
<svg version="1.0" xmlns="http://www.w3.org/2000/svg"
 width="1210.000000pt" height="1280.000000pt" viewBox="0 0 1210.000000 1280.000000"
 preserveAspectRatio="xMidYMid meet">
<metadata>
Created by potrace 1.15, written by Peter Selinger 2001-2017
</metadata>
<g transform="translate(0.000000,1280.000000) scale(0.100000,-0.100000)"
fill="#000000" stroke="none">
<path d="M5972 12783 c-6 -12 10 -235 44 -623 29 -333 53 -617 54 -632 0 -26
0 -26 -92 -32 -460 -27 -592 -40 -878 -86 -1051 -172 -1973 -588 -2770 -1250
-164 -137 -538 -511 -674 -675 -794 -957 -1262 -2096 -1367 -3330 -16 -183
-16 -632 0 -810 16 -188 51 -427 64 -443 6 -7 18 -12 28 -10 9 2 227 180 483
396 256 215 470 392 476 392 5 0 281 -88 614 -195 332 -107 611 -195 619 -195
29 0 36 31 25 120 -14 119 -14 531 1 675 111 1080 643 1989 1491 2550 524 347
1169 553 1877 601 l103 7 -5 -44 c-3 -24 -35 -359 -70 -744 -46 -504 -61 -703
-53 -712 21 -25 44 -12 155 90 346 316 779 883 1132 1482 195 330 461 897 461
983 0 11 -14 66 -31 123 -145 491 -583 1200 -1145 1859 -132 155 -495 520
-516 520 -10 0 -21 -8 -26 -17z"/>
<path d="M8260 11025 c-9 -11 6 -134 79 -607 50 -326 93 -601 95 -610 3 -12
-140 -141 -490 -443 -272 -234 -494 -432 -494 -439 0 -21 29 -41 148 -100 586
-293 1118 -785 1459 -1351 242 -401 388 -826 455 -1325 17 -127 17 -593 0
-730 -60 -481 -182 -886 -403 -1338 -66 -134 -93 -181 -102 -174 -112 89
-1192 882 -1202 882 -43 0 -41 -45 10 -271 175 -762 767 -1982 1212 -2496 60
-69 75 -76 278 -118 513 -108 1331 -92 2110 41 264 45 653 138 677 162 29 29
-10 52 -576 331 l-573 283 54 97 c83 145 256 494 322 649 625 1460 652 2972
80 4393 -556 1384 -1686 2570 -2969 3119 -77 33 -144 60 -149 60 -5 0 -14 -7
-21 -15z"/>
<path d="M2070 4954 c-348 -23 -533 -44 -700 -80 -72 -16 -77 -19 -138 -83
-300 -313 -620 -870 -894 -1556 -126 -314 -244 -682 -313 -977 -23 -99 -26
-120 -15 -134 8 -8 21 -13 31 -11 9 3 243 166 520 364 277 198 509 363 516
366 8 5 46 -45 109 -140 616 -940 1379 -1639 2294 -2103 1250 -633 2726 -770
4138 -384 749 205 1458 563 1995 1008 66 55 80 83 55 103 -13 11 -1132 403
-1148 403 -12 0 -2 -40 -155 640 -74 333 -140 615 -145 628 -5 12 -17 22 -25
22 -9 0 -60 -31 -113 -69 -487 -348 -1060 -570 -1682 -652 -123 -16 -434 -25
-590 -17 -1009 53 -1923 569 -2600 1468 -123 163 -173 241 -164 250 5 5 308
150 674 323 647 306 665 315 665 342 0 25 -6 30 -55 47 -305 105 -776 186
-1335 228 -139 11 -820 21 -925 14z"/>
</g>
</svg>
