<?xml version="1.0" standalone="no"?>
<!DOCTYPE svg PUBLIC "-//W3C//DTD SVG 20010904//EN"
 "http://www.w3.org/TR/2001/REC-SVG-20010904/DTD/svg10.dtd">
<svg version="1.0" xmlns="http://www.w3.org/2000/svg"
 width="1088.000000pt" height="1280.000000pt" viewBox="0 0 1088.000000 1280.000000"
 preserveAspectRatio="xMidYMid meet">
<metadata>
Created by potrace 1.15, written by Peter Selinger 2001-2017
</metadata>
<g transform="translate(0.000000,1280.000000) scale(0.100000,-0.100000)"
fill="#000000" stroke="none">
<path d="M361 12784 c-169 -45 -301 -180 -346 -351 -13 -50 -15 -768 -15
-6033 0 -5265 2 -5983 15 -6033 45 -173 178 -307 350 -352 53 -13 603 -15
5075 -15 4472 0 5022 2 5075 15 172 45 305 179 350 352 12 47 15 151 15 595
l0 538 -2882 0 c-2891 0 -3147 3 -3343 35 -229 39 -380 117 -540 279 -113 115
-144 164 -266 424 l-79 169 3 3949 2 3949 33 104 c62 196 128 314 250 443 133
141 332 264 522 322 l85 26 3105 3 3105 2 3 580 c1 389 -1 597 -9 633 -26 129
-131 267 -247 326 -120 61 301 56 -5187 55 -4351 0 -5027 -2 -5074 -15z m2529
-563 l0 -188 -452 -173 c-449 -170 -782 -286 -951 -330 -48 -13 -85 -25 -83
-27 2 -2 131 0 287 6 156 6 489 11 741 11 l458 0 0 -175 0 -175 -1100 0 -1100
0 0 185 c0 140 3 187 13 190 6 2 217 81 467 174 420 156 731 268 938 336 46
15 81 29 79 31 -2 2 -118 -3 -258 -12 -140 -8 -476 -18 -746 -21 l-493 -6 0
182 0 181 1100 0 1100 0 0 -189z m-750 -1336 c500 -77 752 -275 776 -610 12
-162 -37 -296 -151 -411 -167 -169 -428 -258 -826 -283 -339 -22 -647 25 -879
135 -225 106 -352 253 -387 447 -72 401 241 674 842 736 129 14 499 5 625 -14z
m-342 -2107 l1092 -182 -2 -210 -3 -210 -45 -8 c-460 -81 -911 -152 -1090
-173 -337 -38 -333 -36 -145 -63 289 -42 1041 -177 1263 -227 22 -5 22 -6 22
-208 l0 -202 -298 -47 c-406 -65 -1840 -296 -1874 -302 l-28 -5 0 209 c0 209
0 210 23 214 84 18 1145 131 1475 158 83 6 152 15 152 18 0 4 -51 12 -112 19
-91 10 -1382 222 -1505 247 l-33 7 0 162 0 163 28 6 c172 36 1201 190 1415
212 89 9 173 19 187 21 14 3 -139 23 -340 44 -416 44 -1234 137 -1267 144 -23
5 -23 6 -23 200 0 107 3 195 8 195 4 0 499 -81 1100 -182z m233 -1968 c519
-51 809 -230 875 -538 27 -129 14 -243 -43 -361 -133 -279 -553 -434 -1136
-418 -398 10 -688 101 -875 272 -113 104 -171 217 -187 365 -21 203 88 406
279 519 119 71 345 138 531 159 113 13 433 14 556 2z m859 -1840 l0 -470
-1100 0 -1100 0 0 200 0 200 920 0 920 0 0 270 0 270 180 0 180 0 0 -470z m0
-1180 l0 -470 -1100 0 -1100 0 0 200 0 200 918 2 917 3 3 268 2 267 180 0 180
0 0 -470z m-875 -740 c318 -30 551 -106 701 -228 153 -126 228 -330 195 -529
-61 -359 -466 -563 -1119 -563 -645 0 -1067 228 -1122 608 -44 299 141 538
500 646 86 26 277 62 360 69 103 8 383 6 485 -3z m-955 -1780 l0 -250 285 0
285 0 0 235 0 235 175 0 175 0 0 -235 0 -235 455 0 455 0 0 -205 0 -205 -1100
0 -1100 0 0 455 0 455 185 0 185 0 0 -250z"/>
<path d="M1600 10478 c-331 -15 -529 -85 -557 -196 -20 -76 21 -143 113 -188
126 -61 268 -85 559 -91 420 -10 657 31 771 130 100 88 69 206 -71 268 -142
63 -462 93 -815 77z"/>
<path d="M1570 6394 c-114 -9 -275 -36 -352 -60 -64 -20 -89 -35 -129 -73 -46
-44 -49 -51 -49 -97 0 -120 118 -189 405 -236 127 -21 592 -17 728 5 233 39
338 95 368 198 10 33 9 43 -12 85 -58 115 -272 171 -684 178 -121 2 -245 2
-275 0z"/>
<path d="M1615 2634 c-345 -17 -548 -90 -574 -207 -9 -38 6 -97 34 -127 27
-30 126 -78 205 -99 146 -39 225 -46 520 -46 301 0 422 13 549 56 195 67 254
194 138 296 -59 52 -186 91 -367 112 -95 11 -398 20 -505 15z"/>
<path d="M10765 10056 c-134 -42 -217 -132 -252 -273 -15 -60 -17 -131 -18
-623 0 -607 2 -627 58 -733 54 -103 147 -164 275 -182 l52 -7 0 916 0 916 -37
-1 c-21 0 -56 -6 -78 -13z"/>
<path d="M8370 8195 c-216 -31 -410 -93 -600 -191 -163 -84 -288 -174 -428
-308 -520 -500 -701 -1238 -471 -1931 206 -622 731 -1082 1394 -1221 165 -35
440 -44 605 -20 716 104 1302 593 1519 1269 66 206 75 276 76 562 0 212 -3
277 -18 350 -74 369 -230 672 -482 934 -304 317 -688 508 -1125 561 -112 13
-363 11 -470 -5z"/>
<path d="M4905 7058 c-3 -18 -4 -951 -3 -2073 l3 -2040 24 -60 c18 -44 42 -78
91 -126 57 -58 75 -70 134 -88 l68 -21 2829 0 2829 0 0 869 0 868 -147 -146
c-353 -350 -716 -580 -1143 -724 -505 -169 -1107 -191 -1687 -61 -674 151
-1241 528 -1684 1121 -511 682 -694 1491 -533 2360 13 73 24 137 24 143 0 7
-132 10 -400 10 l-399 0 -6 -32z"/>
</g>
</svg>
